SRRun01_grf
version=1
nRows=15
nColumns=19
inDegrees=no
endheader
time	ground_force_r_vx	ground_force_r_vy	ground_force_r_vz	ground_force_r_px	ground_force_r_py	ground_force_r_pz	ground_force_r_mx	ground_force_r_my	ground_force_r_mz	ground_force_l_vx	ground_force_l_vy	ground_force_l_vz	ground_force_l_px	ground_force_l_py	ground_force_l_pz	ground_force_l_mx	ground_force_l_my	ground_force_l_mz
    144.99800000	      0.00000000	      0.00000000	      0.00000000	      0.00000000	      0.00000000	      0.00000000	      0.00000000	      0.00000000	      0.00000000	    -11.66590618	    851.47470579	    -43.32260676	      1.20862554	      0.00000000	     -0.32307881	      0.00001449	      8.26809676	      0.00005149
    144.99900000	      0.00000000	      0.00000000	      0.00000000	      0.00000000	      0.00000000	      0.00000000	      0.00000000	      0.00000000	      0.00000000	    -14.73153875	    885.74747943	    -42.26355703	      1.20750453	      0.00000000	     -0.32330178	      0.00001546	      7.73415254	      0.00005264
    145.00000000	      0.00000000	      0.00000000	      0.00000000	      0.00000000	      0.00000000	      0.00000000	      0.00000000	      0.00000000	      0.00000000	    -18.35823229	    916.89144891	    -39.06101575	      1.20636987	      0.00000000	     -0.32343525	      0.00001634	      6.91595223	      0.00005369
    145.00100000	      0.00000000	      0.00000000	      0.00000000	      0.00000000	      0.00000000	      0.00000000	      0.00000000	      0.00000000	      0.00000000	    -22.69125769	    944.53396947	    -33.84780480	      1.20524601	      0.00000000	     -0.32346174	      0.00001708	      5.86750312	      0.00005469
    145.00200000	      0.00000000	      0.00000000	      0.00000000	      0.00000000	      0.00000000	      0.00000000	      0.00000000	      0.00000000	      0.00000000	    -27.83054857	    968.40886399	    -26.86327058	      1.20415822	      0.00000000	     -0.32337208	      0.00001767	      4.64031375	      0.00005563
    145.00300000	      0.00000000	      0.00000000	      0.00000000	      0.00000000	      0.00000000	      0.00000000	      0.00000000	      0.00000000	      0.00000000	    -33.81646286	    988.36880670	    -18.44160033	      1.20313058	      0.00000000	     -0.32316580	      0.00001807	      3.27820640	      0.00005653
    145.00400000	      0.00000000	      0.00000000	      0.00000000	      0.00000000	      0.00000000	      0.00000000	      0.00000000	      0.00000000	      0.00000000	    -40.62047654	   1004.39102025	     -8.99532288	      1.20218372	      0.00000000	     -0.32285100	      0.00001828	      1.81477624	      0.00005738
    145.00500000	      0.00000000	      0.00000000	      0.00000000	      0.00000000	      0.00000000	      0.00000000	      0.00000000	      0.00000000	      0.00000000	    -48.14172378	   1016.57692656	      1.00460747	      1.20133267	      0.00000000	     -0.32244373	      0.00001829	      0.27402521	      0.00005814
    145.00600000	      0.00000000	      0.00000000	      0.00000000	      0.00000000	      0.00000000	      0.00000000	      0.00000000	      0.00000000	      0.00000000	    -56.21001124	   1025.14702681	     11.05087753	      1.20058532	      0.00000000	     -0.32196713	      0.00001811	     -1.32586231	      0.00005882
    145.00700000	      0.00000000	      0.00000000	      0.00000000	      0.00000000	      0.00000000	      0.00000000	      0.00000000	      0.00000000	      0.00000000	    -64.59563541	   1030.43213271	     20.62318281	      1.19994181	      0.00000000	     -0.32145011	      0.00001777	     -2.96624620	      0.00005939
    145.00800000	      0.00000000	      0.00000000	      0.00000000	      0.00000000	      0.00000000	      0.00000000	      0.00000000	      0.00000000	      0.00000000	    -73.02590447	   1032.86143278	     29.21230415	      1.19939531	      0.00000000	     -0.32092541	      0.00001731	     -4.62049626	      0.00005986
    145.00900000	      0.00000000	      0.00000000	      0.00000000	      0.00000000	      0.00000000	      0.00000000	      0.00000000	      0.00000000	      0.00000000	    -81.20764872	   1032.94727992	     36.34411919	      1.19893384	      0.00000000	     -0.32042700	      0.00001677	     -6.24682171	      0.00006024
    145.01000000	      0.00000000	      0.00000000	      0.00000000	      0.00000000	      0.00000000	      0.00000000	      0.00000000	      0.00000000	      0.00000000	    -88.85424007	   1031.26638861	     41.60233844	      1.19854321	      0.00000000	     -0.31998713	      0.00001622	     -7.78309851	      0.00006055
    145.01100000	      0.00000000	      0.00000000	      0.00000000	      0.00000000	      0.00000000	      0.00000000	      0.00000000	      0.00000000	      0.00000000	    -95.71487430	   1028.43737412	     44.64855135	      1.19821038	      0.00000000	     -0.31963356	      0.00001572	     -9.14498270	      0.00006083
    145.01200000	      0.00000000	      0.00000000	      0.00000000	      0.00000000	      0.00000000	      0.00000000	      0.00000000	      0.00000000	      0.00000000	   -101.60326107	   1025.09501587	     45.23847874	      1.19792648	      0.00000000	     -0.31938752	      0.00001532	    -10.22806768	      0.00006110
